# xmcd CD database file
#
# Track frame offsets:
#	182
#	13512
#	24950
#	39345
#	55412
#	75190
#	97820
#	115840
#	139445
#	157045
#
# Disc length: 2320 seconds
#
# Revision: 0
# Processed by: cddbd v1.4PL0 Copyright (c) Steve Scherf et al.
# Submitted via: Feurio! 1.65 - http://www.feurio.com
#
DISCID=6e090e0a
DTITLE=Dusters - This Ain't No Jukebox...
DYEAR=1990
DGENRE=Bluesrock
TTITLE0=This Ain't No Jukebox...We're A Rock'n Roll Band
TTITLE1=Take A Chance On Love
TTITLE2=The Truck Won't Start
TTITLE3=Phantom Of The Strip
TTITLE4=How Could You
TTITLE5=Hellbound Train
TTITLE6=Street Legal
TTITLE7=What Can I Say
TTITLE8=Blues Highway
TTITLE9=Look What The Cat Drug In
EXTD=REPTILE Records, 1990 (C 1991 Dixiefrog)
EXTT0=
EXTT1=
EXTT2=
EXTT3=
EXTT4=
EXTT5=
EXTT6=
EXTT7=
EXTT8=
EXTT9=
PLAYORDER=
